# xmcd
#
# Track frame offsets:
# 150
# 16949
# 32432
# 43267
# 67649
# 82611
# 103662
# 117429
# 124570
# 138423
# 148924
# 162754
# 177723
# 193968
# 207191
# 219842
# 234193
# 244728
#
# Disc length: 3299 seconds
#
#
# Revision: 0
# Processed by: cddbd v1.5PL3 Copyright (c) Steve Scherf et al.
# Submitted via: FreeRIP 2.53 
#
DISCID=f10ce112
DTITLE=The Grand Piano Boogie Train - The Boogie Never Stops
DYEAR=1900
DGENRE=Boogie Woogie
TTITLE0=The Boogie Never Stops
TTITLE1=Bunker Blues
TTITLE2=Stamping Horses
TTITLE3=Honky Tonk Train Blues
TTITLE4=Lizzy's Tune
TTITLE5=Bubbles
TTITLE6=Walking Bass Boogie
TTITLE7=Ode To Albert Ammons
TTITLE8=Shim Sham Boogie
TTITLE9=Boogie Woogie Ath The Civic Opera
TTITLE10=Jim Jom Boogie
TTITLE11=The Bridle
TTITLE12=Silhouette Blues
TTITLE13=Sentimental Journey
TTITLE14=Groovin' The Boogie
TTITLE15=Boogie Woogie Or Else
TTITLE16=The Boogie Never Stops (Reprise)
TTITLE17=Goodnight
EXTD=Romeo Records F8128
EXTT0=
EXTT1=
EXTT2=
EXTT3=
EXTT4=
EXTT5=
EXTT6=
EXTT7=
EXTT8=
EXTT9=
EXTT10=
EXTT11=
EXTT12=
EXTT13=
EXTT14=
EXTT15=
EXTT16=
EXTT17=
PLAYORDER=
